<svg width="441" height="441" viewBox="0 0 441 441" fill="none" xmlns="http://www.w3.org/2000/svg">
<rect width="441" height="441" rx="42" fill="#2F63E0"/>
<path d="M109.288 257.073V265.841H97.384V302.001H86.44V265.841H74.536V257.073H109.288ZM125.725 272.241C127.005 270.278 128.605 268.742 130.525 267.633C132.445 266.481 134.578 265.905 136.925 265.905V277.489H133.917C131.186 277.489 129.138 278.086 127.773 279.281C126.407 280.433 125.725 282.481 125.725 285.425V302.001H114.781V266.289H125.725V272.241ZM147.66 262.577C145.74 262.577 144.161 262.022 142.924 260.913C141.729 259.761 141.132 258.353 141.132 256.689C141.132 254.982 141.729 253.574 142.924 252.465C144.161 251.313 145.74 250.737 147.66 250.737C149.537 250.737 151.073 251.313 152.268 252.465C153.505 253.574 154.124 254.982 154.124 256.689C154.124 258.353 153.505 259.761 152.268 260.913C151.073 262.022 149.537 262.577 147.66 262.577ZM153.1 266.289V302.001H142.156V266.289H153.1ZM171.975 271.345C173.041 269.681 174.513 268.337 176.391 267.313C178.268 266.289 180.465 265.777 182.983 265.777C185.927 265.777 188.593 266.523 190.983 268.017C193.372 269.51 195.249 271.643 196.615 274.417C198.023 277.19 198.727 280.411 198.727 284.081C198.727 287.75 198.023 290.993 196.615 293.809C195.249 296.582 193.372 298.737 190.983 300.273C188.593 301.766 185.927 302.513 182.983 302.513C180.508 302.513 178.311 302.001 176.391 300.977C174.513 299.953 173.041 298.63 171.975 297.009V319.025H161.031V266.289H171.975V271.345ZM187.591 284.081C187.591 281.35 186.823 279.217 185.287 277.681C183.793 276.102 181.937 275.313 179.719 275.313C177.543 275.313 175.687 276.102 174.151 277.681C172.657 279.259 171.911 281.414 171.911 284.145C171.911 286.875 172.657 289.03 174.151 290.609C175.687 292.187 177.543 292.977 179.719 292.977C181.895 292.977 183.751 292.187 185.287 290.609C186.823 288.987 187.591 286.811 187.591 284.081ZM244.66 302.001H233.716L215.412 274.289V302.001H204.468V257.073H215.412L233.716 284.913V257.073H244.66V302.001ZM280.753 257.073V287.665C280.753 292.401 279.409 296.049 276.721 298.609C274.076 301.169 270.492 302.449 265.969 302.449C261.233 302.449 257.436 301.105 254.577 298.417C251.718 295.729 250.289 291.91 250.289 286.961H261.169C261.169 288.838 261.553 290.267 262.321 291.249C263.089 292.187 264.198 292.657 265.649 292.657C266.972 292.657 267.996 292.23 268.721 291.377C269.446 290.523 269.809 289.286 269.809 287.665V257.073H280.753ZM305.849 302.513C302.35 302.513 299.193 301.766 296.377 300.273C293.604 298.779 291.406 296.646 289.785 293.873C288.206 291.099 287.417 287.857 287.417 284.145C287.417 280.475 288.228 277.254 289.849 274.481C291.47 271.665 293.689 269.51 296.505 268.017C299.321 266.523 302.478 265.777 305.977 265.777C309.476 265.777 312.633 266.523 315.449 268.017C318.265 269.51 320.484 271.665 322.105 274.481C323.726 277.254 324.537 280.475 324.537 284.145C324.537 287.814 323.705 291.057 322.041 293.873C320.42 296.646 318.18 298.779 315.321 300.273C312.505 301.766 309.348 302.513 305.849 302.513ZM305.849 293.041C307.94 293.041 309.71 292.273 311.161 290.737C312.654 289.201 313.401 287.003 313.401 284.145C313.401 281.286 312.676 279.089 311.225 277.553C309.817 276.017 308.068 275.249 305.977 275.249C303.844 275.249 302.073 276.017 300.665 277.553C299.257 279.046 298.553 281.243 298.553 284.145C298.553 287.003 299.236 289.201 300.601 290.737C302.009 292.273 303.758 293.041 305.849 293.041ZM366.823 266.289L344.423 318.961H332.647L340.839 300.785L326.311 266.289H338.535L346.791 288.625L354.983 266.289H366.823Z" fill="white"/>
<path d="M128.632 340.513C129.443 340.641 130.179 340.971 130.84 341.505C131.523 342.038 132.056 342.699 132.44 343.489C132.845 344.278 133.048 345.121 133.048 346.017C133.048 347.147 132.76 348.171 132.184 349.089C131.608 349.985 130.765 350.699 129.656 351.233C128.568 351.745 127.277 352.001 125.784 352.001H117.464V329.697H125.464C126.979 329.697 128.269 329.953 129.336 330.465C130.403 330.955 131.203 331.627 131.736 332.481C132.269 333.334 132.536 334.294 132.536 335.361C132.536 336.683 132.173 337.782 131.448 338.657C130.744 339.51 129.805 340.129 128.632 340.513ZM120.376 339.329H125.272C126.637 339.329 127.693 339.009 128.44 338.369C129.187 337.729 129.56 336.843 129.56 335.713C129.56 334.582 129.187 333.697 128.44 333.057C127.693 332.417 126.616 332.097 125.208 332.097H120.376V339.329ZM125.528 349.601C126.979 349.601 128.109 349.259 128.92 348.577C129.731 347.894 130.136 346.945 130.136 345.729C130.136 344.491 129.709 343.521 128.856 342.817C128.003 342.091 126.861 341.729 125.432 341.729H120.376V349.601H125.528ZM150.273 347.041H140.545L138.753 352.001H135.681L143.745 329.825H147.105L155.137 352.001H152.065L150.273 347.041ZM149.441 344.673L145.409 333.409L141.377 344.673H149.441ZM157.564 340.833C157.564 338.657 158.054 336.705 159.036 334.977C160.017 333.227 161.35 331.862 163.036 330.881C164.742 329.899 166.63 329.409 168.7 329.409C171.132 329.409 173.254 329.995 175.068 331.169C176.881 332.342 178.204 334.006 179.036 336.161H175.548C174.929 334.817 174.033 333.782 172.86 333.057C171.708 332.331 170.321 331.969 168.7 331.969C167.142 331.969 165.745 332.331 164.508 333.057C163.27 333.782 162.3 334.817 161.596 336.161C160.892 337.483 160.54 339.041 160.54 340.833C160.54 342.603 160.892 344.161 161.596 345.505C162.3 346.827 163.27 347.851 164.508 348.577C165.745 349.302 167.142 349.665 168.7 349.665C170.321 349.665 171.708 349.313 172.86 348.609C174.033 347.883 174.929 346.849 175.548 345.505H179.036C178.204 347.638 176.881 349.291 175.068 350.465C173.254 351.617 171.132 352.193 168.7 352.193C166.63 352.193 164.742 351.713 163.036 350.753C161.35 349.771 160.017 348.417 159.036 346.689C158.054 344.961 157.564 343.009 157.564 340.833ZM195.466 352.001L186.282 341.825V352.001H183.37V329.697H186.282V340.033L195.498 329.697H199.178L189.066 340.865L199.274 352.001H195.466ZM214.687 339.041V341.505H201.919V339.041H214.687ZM230.264 352.225C228.194 352.225 226.306 351.745 224.6 350.785C222.893 349.803 221.538 348.449 220.536 346.721C219.554 344.971 219.064 343.009 219.064 340.833C219.064 338.657 219.554 336.705 220.536 334.977C221.538 333.227 222.893 331.873 224.6 330.913C226.306 329.931 228.194 329.441 230.264 329.441C232.354 329.441 234.253 329.931 235.96 330.913C237.666 331.873 239.01 333.217 239.992 334.945C240.973 336.673 241.464 338.635 241.464 340.833C241.464 343.03 240.973 344.993 239.992 346.721C239.01 348.449 237.666 349.803 235.96 350.785C234.253 351.745 232.354 352.225 230.264 352.225ZM230.264 349.697C231.821 349.697 233.218 349.334 234.456 348.609C235.714 347.883 236.696 346.849 237.4 345.505C238.125 344.161 238.488 342.603 238.488 340.833C238.488 339.041 238.125 337.483 237.4 336.161C236.696 334.817 235.725 333.782 234.488 333.057C233.25 332.331 231.842 331.969 230.264 331.969C228.685 331.969 227.277 332.331 226.04 333.057C224.802 333.782 223.821 334.817 223.096 336.161C222.392 337.483 222.04 339.041 222.04 340.833C222.04 342.603 222.392 344.161 223.096 345.505C223.821 346.849 224.802 347.883 226.04 348.609C227.298 349.334 228.706 349.697 230.264 349.697ZM257.916 329.697V332.065H248.22V339.585H256.092V341.953H248.22V352.001H245.308V329.697H257.916ZM274.041 329.697V332.065H264.345V339.585H272.217V341.953H264.345V352.001H261.433V329.697H274.041ZM280.47 329.697V352.001H277.558V329.697H280.47ZM284.345 340.833C284.345 338.657 284.835 336.705 285.817 334.977C286.798 333.227 288.131 331.862 289.817 330.881C291.523 329.899 293.411 329.409 295.481 329.409C297.913 329.409 300.035 329.995 301.849 331.169C303.662 332.342 304.985 334.006 305.817 336.161H302.329C301.71 334.817 300.814 333.782 299.641 333.057C298.489 332.331 297.102 331.969 295.481 331.969C293.923 331.969 292.526 332.331 291.289 333.057C290.051 333.782 289.081 334.817 288.377 336.161C287.673 337.483 287.321 339.041 287.321 340.833C287.321 342.603 287.673 344.161 288.377 345.505C289.081 346.827 290.051 347.851 291.289 348.577C292.526 349.302 293.923 349.665 295.481 349.665C297.102 349.665 298.489 349.313 299.641 348.609C300.814 347.883 301.71 346.849 302.329 345.505H305.817C304.985 347.638 303.662 349.291 301.849 350.465C300.035 351.617 297.913 352.193 295.481 352.193C293.411 352.193 291.523 351.713 289.817 350.753C288.131 349.771 286.798 348.417 285.817 346.689C284.835 344.961 284.345 343.009 284.345 340.833ZM313.064 332.065V339.521H321.192V341.921H313.064V349.601H322.152V352.001H310.152V329.665H322.152V332.065H313.064Z" fill="white"/>
<g clip-path="url(#clip0_520_1914)">
<path d="M313 98.5849C313 89.6427 308.138 81.8384 300.915 77.6665C299.646 76.9332 298.078 76.988 296.88 77.8266L275.346 92.8918L264.75 100.313L226.198 127.312C226.084 127.392 225.979 127.48 225.891 127.577L209.758 138.863C205.322 141.964 204.057 147.801 206.92 151.888C209.788 155.98 215.703 156.785 220.139 153.683L238.941 140.527C239.337 140.249 239.868 140.249 240.265 140.527L277.412 166.54C278.121 167.038 279.065 167.038 279.774 166.54L285.862 162.267H285.871C289.084 160.346 291.238 156.831 291.238 152.815C291.238 150.093 290.252 147.607 288.612 145.685C296.121 143.355 301.573 136.355 301.573 128.083C301.573 125.23 300.928 122.529 299.768 120.119C307.62 116.136 313 107.986 313 98.5849V98.5849ZM214.384 151.264C211.778 151.264 209.707 149.023 209.986 146.364C210.201 144.341 211.837 142.689 213.857 142.457C216.534 142.149 218.807 144.235 218.807 146.848C218.807 149.292 216.825 151.269 214.384 151.269V151.264Z" fill="white"/>
<path d="M159.956 172.651L159.45 173.005C156.824 174.513 155.053 177.349 155.053 180.594C155.053 185.432 158.974 189.347 163.81 189.347C163.928 189.347 164.051 189.342 164.169 189.338C162.992 190.939 162.301 192.912 162.301 195.048C162.301 200.387 166.631 204.719 171.978 204.719C174.263 204.719 176.363 203.927 178.016 202.604C178.016 202.625 178.012 202.646 178.007 202.667C177.4 207.433 180.592 211.967 185.285 213.004C188.84 213.788 192.162 212.587 194.342 210.286C194.334 210.438 194.33 210.589 194.33 210.745C194.33 214.976 197.762 218.406 202 218.406C203.846 218.406 205.541 217.753 206.87 216.662H206.878L213.793 211.803C214.725 211.15 214.725 209.772 213.793 209.119L161.841 172.651C161.276 172.254 160.521 172.254 159.956 172.651V172.651Z" fill="white"/>
<path d="M284.273 181.188C284.273 177.943 282.502 175.107 279.875 173.599L240.648 146.127C239.94 145.63 238.991 145.63 238.283 146.127L222.555 157.134C220.076 158.866 217.2 159.785 214.24 159.785C209.897 159.785 205.866 157.737 203.463 154.307C201.397 151.353 200.688 147.733 201.477 144.113C202.24 140.611 204.319 137.522 207.338 135.411L215.366 129.794C215.842 129.461 215.842 128.757 215.366 128.424L175.25 100.329L164.654 92.9085L142.631 77.502C141.766 76.8952 140.632 76.8362 139.704 77.3377C132.14 81.4168 127 89.4066 127 98.6016C127 107.797 132.38 116.153 140.232 120.135C139.072 122.546 138.427 125.247 138.427 128.1C138.427 136.372 143.879 143.371 151.388 145.702C149.748 147.623 148.762 150.11 148.762 152.832C148.762 156.848 150.916 160.362 154.129 162.28H154.138L232.447 217.252H232.456C233.784 218.347 235.479 219.001 237.326 219.001C241.563 219.001 244.996 215.57 244.996 211.339C244.996 211.184 244.991 211.032 244.983 210.88C247.163 213.181 250.486 214.382 254.04 213.598C258.737 212.561 261.925 208.027 261.318 203.261C261.318 203.24 261.314 203.219 261.309 203.198C262.962 204.521 265.062 205.313 267.348 205.313C272.694 205.313 277.024 200.981 277.024 195.642C277.024 193.506 276.333 191.534 275.157 189.932C275.275 189.932 275.397 189.941 275.515 189.941C280.351 189.941 284.273 186.026 284.273 181.188V181.188Z" fill="white"/>
</g>
<defs>
<clipPath id="clip0_520_1914">
<rect width="186" height="142" fill="white" transform="translate(127 77)"/>
</clipPath>
</defs>
</svg>
